<?xml version="1.0" encoding="UTF-8" standalone="no"?>
<svg
   xmlns:dc="http://purl.org/dc/elements/1.1/"
   xmlns:cc="http://creativecommons.org/ns#"
   xmlns:rdf="http://www.w3.org/1999/02/22-rdf-syntax-ns#"
   xmlns:svg="http://www.w3.org/2000/svg"
   xmlns="http://www.w3.org/2000/svg"
   height="442.76001"
   width="512"
   xml:space="preserve"
   viewBox="0 0 512 442.76001"
   y="0px"
   x="0px"
   id="Layer_1"
   version="1.1"><metadata
   id="metadata57"><rdf:RDF><cc:Work
       rdf:about=""><dc:format>image/svg+xml</dc:format><dc:type
         rdf:resource="http://purl.org/dc/dcmitype/StillImage" /><dc:title></dc:title></cc:Work></rdf:RDF></metadata><defs
   id="defs55" />
<g
   transform="translate(0,-34.62)"
   id="g20">
	<g
   id="g18">
		<g
   style="fill:#000000;fill-opacity:1"
   id="g16">
			<path
   style="fill:#35495e;fill-opacity:1"
   id="path2"
   d="M 472.178,34.62 H 39.822 C 17.864,34.62 0,52.484 0,74.442 0,92.397 0,419.676 0,437.558 0,459.516 17.864,477.38 39.822,477.38 h 432.356 c 21.958,0 39.822,-17.864 39.822,-39.822 0,-17.89 0,-345.167 0,-363.116 C 512,52.484 494.136,34.62 472.178,34.62 Z m 5.689,402.937 c 0,3.137 -2.552,5.689 -5.689,5.689 H 39.822 c -3.137,0 -5.689,-2.552 -5.689,-5.689 V 153.838 h 443.733 v 283.719 z m 0,-317.852 H 34.133 V 74.442 c 0,-3.137 2.552,-5.689 5.689,-5.689 h 432.356 c 3.137,0 5.689,2.552 5.689,5.689 z" />
			<circle
   style="fill:#00c58e;fill-opacity:1"
   id="circle4"
   r="12.836"
   cy="94.230003"
   cx="71.805" />
			<circle
   style="fill:#00c58e;fill-opacity:1"
   id="circle6"
   r="12.836"
   cy="94.230003"
   cx="112.959" />
			<circle
   style="fill:#00c58e;fill-opacity:1"
   id="circle8"
   r="12.836"
   cy="94.230003"
   cx="154.112" />
			<path
   style="fill:#00c58e;fill-opacity:1"
   id="path10"
   d="m 81.581,334.442 c 4.44,13.701 22.872,16.101 30.636,3.9 l 10.454,-16.432 10.454,16.432 c 7.744,12.169 26.195,9.801 30.636,-3.9 l 19.857,-61.278 c 2.906,-8.967 -2.008,-18.591 -10.975,-21.497 -8.971,-2.906 -18.591,2.009 -21.497,10.975 l -8.681,26.791 -5.393,-8.478 c -6.695,-10.52 -22.094,-10.538 -28.801,0 l -5.392,8.478 -8.681,-26.79 c -2.906,-8.966 -12.526,-13.882 -21.497,-10.975 -8.967,2.906 -13.88,12.529 -10.975,21.496 z" />
			<path
   style="fill:#00c58e;fill-opacity:1"
   id="path12"
   d="m 214.911,334.442 c 4.446,13.72 22.905,16.052 30.636,3.9 L 256,321.911 l 10.454,16.432 c 7.762,12.2 26.196,9.8 30.636,-3.9 l 19.855,-61.278 c 2.906,-8.967 -2.008,-18.59 -10.975,-21.496 -8.974,-2.907 -18.591,2.008 -21.497,10.975 l -8.681,26.79 -5.392,-8.478 c -6.695,-10.52 -22.094,-10.538 -28.801,0 l -5.392,8.478 -8.681,-26.79 c -2.905,-8.966 -12.527,-13.882 -21.496,-10.975 -8.967,2.906 -13.88,12.529 -10.975,21.496 z" />
			<path
   style="fill:#00c58e;fill-opacity:1"
   id="path14"
   d="m 348.241,334.442 c 4.446,13.72 22.905,16.051 30.636,3.9 l 10.454,-16.432 10.454,16.432 c 7.762,12.2 26.195,9.8 30.636,-3.9 l 19.855,-61.278 c 2.906,-8.967 -2.008,-18.59 -10.975,-21.496 -8.973,-2.907 -18.591,2.008 -21.496,10.975 l -8.681,26.79 -5.392,-8.478 c -6.695,-10.52 -22.095,-10.538 -28.801,0 l -5.393,8.478 -8.681,-26.791 c -2.906,-8.966 -12.531,-13.881 -21.497,-10.975 -8.967,2.906 -13.88,12.53 -10.974,21.497 z" />
		</g>
	</g>
</g>
<g
   transform="translate(0,-34.62)"
   id="g22">
</g>
<g
   transform="translate(0,-34.62)"
   id="g24">
</g>
<g
   transform="translate(0,-34.62)"
   id="g26">
</g>
<g
   transform="translate(0,-34.62)"
   id="g28">
</g>
<g
   transform="translate(0,-34.62)"
   id="g30">
</g>
<g
   transform="translate(0,-34.62)"
   id="g32">
</g>
<g
   transform="translate(0,-34.62)"
   id="g34">
</g>
<g
   transform="translate(0,-34.62)"
   id="g36">
</g>
<g
   transform="translate(0,-34.62)"
   id="g38">
</g>
<g
   transform="translate(0,-34.62)"
   id="g40">
</g>
<g
   transform="translate(0,-34.62)"
   id="g42">
</g>
<g
   transform="translate(0,-34.62)"
   id="g44">
</g>
<g
   transform="translate(0,-34.62)"
   id="g46">
</g>
<g
   transform="translate(0,-34.62)"
   id="g48">
</g>
<g
   transform="translate(0,-34.62)"
   id="g50">
</g>
</svg>